<svg width="20" height="21" viewBox="0 0 20 21" fill="none" xmlns="http://www.w3.org/2000/svg">
    <path d="M18.3845 2.67109C17.3373 1.59899 15.9508 1.01302 14.4711 1.01302C12.9913 1.01302 11.6006 1.60333 10.5533 2.67543L10.0064 3.23535L9.45092 2.66675C8.40365 1.59465 7.0087 1 5.52895 1C4.05344 1 2.66273 1.59031 1.61969 2.65807C0.57242 3.73017 -0.00421676 5.15385 2.32169e-05 6.66868C2.32169e-05 8.18351 0.5809 9.60285 1.62817 10.6749L9.59084 18.8264C9.70108 18.9392 9.84948 19 9.99364 19C10.1378 19 10.2862 18.9436 10.3964 18.8307L18.3761 10.6923C19.4233 9.62021 20 8.19653 20 6.6817C20.0042 5.16687 19.4318 3.74319 18.3845 2.67109ZM17.5705 9.86328L9.99364 17.5893L2.43377 9.85025C1.60273 8.99952 1.14482 7.87099 1.14482 6.66868C1.14482 5.46636 1.59849 4.33783 2.42953 3.49144C3.25632 2.64504 4.35872 2.17627 5.52895 2.17627C6.70342 2.17627 7.81005 2.64504 8.64109 3.49578L9.59932 4.47673C9.82404 4.70678 10.1844 4.70678 10.4092 4.47673L11.3589 3.50446C12.1899 2.65373 13.2966 2.18495 14.4668 2.18495C15.637 2.18495 16.7394 2.65373 17.5705 3.50012C18.4015 4.35086 18.8552 5.47938 18.8552 6.6817C18.8594 7.88401 18.4015 9.01254 17.5705 9.86328Z"
          fill="#052555"/>
</svg>
