<svg width="8" height="12" viewBox="0 0 8 12" fill="none" xmlns="http://www.w3.org/2000/svg">
    <path d="M4.00018 0C1.7908 0 0 1.71642 0 3.83403C0 4.7472 0.335009 5.58448 0.891666 6.24267C1.0711 6.45449 1.37128 6.78802 1.52775 7.01609C2.42872 8.328 3.58459 10.2333 3.92143 11.7969C3.97923 12.0639 4.04888 12.0686 4.12387 11.8055C4.36413 10.9625 4.98724 9.12033 6.27406 7.19278C6.4275 6.96291 6.7386 6.6412 6.93174 6.44091C7.21148 6.15054 7.4443 5.81811 7.62122 5.45566C7.86242 4.96123 8.00032 4.41387 8.00032 3.83448C8.00032 1.71662 6.20952 0 4.00018 0ZM4.00018 5.90554C2.76702 5.90554 1.76737 4.94741 1.76737 3.76547C1.76737 2.58373 2.76702 1.62564 4.00018 1.62564C5.23334 1.62564 6.23299 2.58377 6.23299 3.76547C6.23299 4.94745 5.23334 5.90554 4.00018 5.90554Z"
          fill="white"/>
    <path d="M3.99994 4.57996C4.51278 4.57996 4.92852 4.18148 4.92852 3.68994C4.92852 3.1984 4.51278 2.79993 3.99994 2.79993C3.48709 2.79993 3.07135 3.1984 3.07135 3.68994C3.07135 4.18148 3.48709 4.57996 3.99994 4.57996Z"
          fill="white"/>
</svg>
