<svg width="12" height="13" viewBox="0 0 12 13" fill="none" xmlns="http://www.w3.org/2000/svg">
    <path d="M3.41969 2.10476C2.67357 2.10476 2.11399 2.72381 2.11399 3.40476V6.99524C2.11399 9.16191 3.85492 10.8952 6.03109 10.8952C8.20725 10.8952 9.94818 9.16191 9.94818 6.99524V3.40476C9.94818 2.6619 9.32642 2.10476 8.64249 2.10476H3.41969ZM6.03109 13C2.73575 13 0 10.3381 0 6.99524V3.40476C0 1.54762 1.5544 0 3.41969 0H8.58031C10.4456 0 12 1.54762 12 3.40476V6.99524C12 10.3381 9.32642 13 6.03109 13Z"
          fill="white"/>
    <path d="M7.39951 7.11902H4.60158C4.16635 7.11902 3.85547 6.80949 3.85547 6.37616C3.85547 5.94282 4.16635 5.6333 4.60158 5.6333H7.33734C7.77257 5.6333 8.08345 5.94282 8.08345 6.37616C8.14562 6.74759 7.77257 7.11902 7.39951 7.11902Z"
          fill="white"/>
    <path d="M6.03127 8.48076C5.59604 8.48076 5.28516 8.17124 5.28516 7.73791V5.0141C5.28516 4.58076 5.59604 4.27124 6.03127 4.27124C6.4665 4.27124 6.77739 4.58076 6.77739 5.0141V7.73791C6.71521 8.17124 6.40433 8.48076 6.03127 8.48076Z"
          fill="white"/>
</svg>
